# xmcd CD database file
# Copyright (C) 1997 Ti Kan
# 
# Track frame offsets:
#     150
#     18332
#     39964
#     65307
#     84502
#     108932
#     122267
#     141530
#     157472
#     179717
#     193982
#     211575
#     227640
# 
# Disc length: 3220 seconds
# 
# Revision: 1
# Processed by: cddbd v1.4b41PL1 Copyright (c) Steve Scherf et al.
# Submitted via: DiscPlay 4.0.4
# 
DISCID=b20c920d
DTITLE=Fernando Caldas - Voz de Mim
DYEAR=1900
DGENRE=
TTITLE0=Voz de Mim
TTITLE1=Onomatop ias
TTITLE2=O Carnaval
TTITLE3=Blue Triste
TTITLE4=Liberdade
TTITLE5=Nega C o
TTITLE6=Funkaos
TTITLE7=Os Urubus do Universo
TTITLE8=Pena
TTITLE9=Barro Negro
TTITLE10=Karma
TTITLE11=Jos  II
TTITLE12=Mendingos de Gravata
EXTD=
EXTT0=
EXTT1=
EXTT2=
EXTT3=
EXTT4=
EXTT5=
EXTT6=\n
EXTT7=
EXTT8=
EXTT9=
EXTT10=
EXTT11=
EXTT12=
PLAYORDER=
